<svg width="120" height="76" viewBox="0 0 120 76" fill="none" xmlns="http://www.w3.org/2000/svg">
<path d="M50.4922 34.0901C53.9851 38.621 56.6028 43.7748 58.2787 49.4478C77.6338 24.1086 97.2999 21.0402 96.3359 21.6113C82.6407 29.5371 68.9581 43.6721 59.8294 56.5382C60.0297 57.888 60.1854 59.2672 60.2892 60.6613C60.4746 63.1974 60.5043 65.8077 60.3634 68.4849C106.207 68.5665 102.469 21.4252 120 1.86971C100.934 -2.59459 78.8719 0.705415 64.5152 14.2612C58.2193 20.2006 53.8887 25.9774 50.4922 34.0901Z" fill="#076300"/>
<path d="M54.8602 69.0252L54.4227 57.2713C53.8368 56.1152 53.5488 45.0722 43.7602 34.5791C33.0361 23.0924 16.6779 18.8209 0 19.1027C16.463 40.6003 8.72129 75.4756 52.1474 75.2234C46.7559 61.1866 20.3855 34.6011 26.1772 39.0208C37.5742 47.7269 47.9341 57.7533 54.8602 69.0252Z" fill="#076300"/>
</svg>
