<svg width="61" height="60" viewBox="0 0 61 60" fill="none" xmlns="http://www.w3.org/2000/svg">
<rect x="1" y="0.5" width="59" height="59" rx="29.5" stroke="url(#paint0_linear_501_31)"/>
<rect x="1" y="0.5" width="59" height="59" rx="29.5" stroke="url(#paint1_linear_501_31)"/>
<rect x="9" y="8.5" width="43" height="43" rx="21.5" stroke="url(#paint2_linear_501_31)"/>
<rect x="9" y="8.5" width="43" height="43" rx="21.5" stroke="url(#paint3_linear_501_31)"/>
<path fill-rule="evenodd" clip-rule="evenodd" d="M30.0397 40.351C30.07 40.3685 30.0937 40.3821 30.1105 40.3915L30.1384 40.4071C30.3613 40.5294 30.6378 40.5285 30.8608 40.4075L30.8895 40.3915C30.9063 40.3821 30.93 40.3685 30.9603 40.351C31.0207 40.316 31.107 40.265 31.2155 40.1982C31.4325 40.0646 31.7388 39.8676 32.1046 39.6091C32.8351 39.0931 33.8097 38.3274 34.7865 37.3273C36.7307 35.3368 38.75 32.3462 38.75 28.5C38.75 23.9437 35.0563 20.25 30.5 20.25C25.9437 20.25 22.25 23.9437 22.25 28.5C22.25 32.3462 24.2693 35.3368 26.2135 37.3273C27.1903 38.3274 28.1649 39.0931 28.8954 39.6091C29.2612 39.8676 29.5675 40.0646 29.7845 40.1982C29.893 40.265 29.9793 40.316 30.0397 40.351ZM30.5 31.5C32.1569 31.5 33.5 30.1569 33.5 28.5C33.5 26.8431 32.1569 25.5 30.5 25.5C28.8431 25.5 27.5 26.8431 27.5 28.5C27.5 30.1569 28.8431 31.5 30.5 31.5Z" fill="white"/>
<defs>
<linearGradient id="paint0_linear_501_31" x1="5.43903" y1="63.2927" x2="63.2439" y2="-4.02439" gradientUnits="userSpaceOnUse">
<stop stop-color="#0BB501"/>
<stop offset="0.323723" stop-color="#A685FA" stop-opacity="0"/>
</linearGradient>
<linearGradient id="paint1_linear_501_31" x1="60.3171" y1="-7.68292" x2="5.43902" y2="60" gradientUnits="userSpaceOnUse">
<stop stop-color="#0BB501"/>
<stop offset="0.576615" stop-color="#A685FA" stop-opacity="0"/>
</linearGradient>
<linearGradient id="paint2_linear_501_31" x1="3.70968" y1="10.4839" x2="52.3226" y2="52" gradientUnits="userSpaceOnUse">
<stop stop-color="#0BB501"/>
<stop offset="0.323723" stop-color="#A685FA" stop-opacity="0"/>
</linearGradient>
<linearGradient id="paint3_linear_501_31" x1="61.1935" y1="61.9355" x2="10.0968" y2="25.7419" gradientUnits="userSpaceOnUse">
<stop stop-color="#0BB501"/>
<stop offset="0.576615" stop-color="#A685FA" stop-opacity="0"/>
</linearGradient>
</defs>
</svg>
