<svg width="148" height="120" viewBox="0 0 148 120" fill="none" xmlns="http://www.w3.org/2000/svg">
<path d="M105.853 16.0129L44.1447 0.158337C41.1914 -0.618847 38.3936 1.55727 38.3936 4.666V120H109.584V20.5205C109.428 18.4999 108.029 16.6346 105.853 16.0129ZM68.5483 28.7587C68.5483 28.1369 69.0146 27.6706 69.6363 27.6706H77.8745C78.4962 27.6706 78.9625 28.1369 78.9625 28.7587V36.5305C78.9625 37.1523 78.4962 37.6186 77.8745 37.6186H69.6363C69.0146 37.6186 68.5483 37.1523 68.5483 36.5305V28.7587ZM68.5483 49.2763C68.5483 48.6546 69.0146 48.1883 69.6363 48.1883H77.8745C78.4962 48.1883 78.9625 48.6546 78.9625 49.2763V57.0482C78.9625 57.6699 78.4962 58.1362 77.8745 58.1362H69.6363C69.0146 58.1362 68.5483 57.6699 68.5483 57.0482V49.2763ZM68.5483 69.794C68.5483 69.1722 69.0146 68.7059 69.6363 68.7059H77.8745C78.4962 68.7059 78.9625 69.1722 78.9625 69.794V77.5658C78.9625 78.1875 78.4962 78.6539 77.8745 78.6539H69.6363C69.0146 78.6539 68.5483 78.1875 68.5483 77.5658V69.794ZM48.8078 28.7587C48.8078 28.1369 49.2741 27.6706 49.8959 27.6706H57.9786C58.6003 27.6706 59.0666 28.1369 59.0666 28.7587V36.5305C59.0666 37.1523 58.6003 37.6186 57.9786 37.6186H49.8959C49.2741 37.6186 48.8078 37.1523 48.8078 36.5305V28.7587ZM48.8078 49.2763C48.8078 48.6546 49.2741 48.1883 49.8959 48.1883H57.9786C58.6003 48.1883 59.0666 48.6546 59.0666 49.2763V57.0482C59.0666 57.6699 58.6003 58.1362 57.9786 58.1362H49.8959C49.2741 58.1362 48.8078 57.6699 48.8078 57.0482V49.2763ZM58.134 78.8093H50.0513C49.4296 78.8093 48.9632 78.343 48.9632 77.7212V69.9494C48.9632 69.3277 49.4296 68.8613 50.0513 68.8613H58.134C58.7558 68.8613 59.2221 69.3277 59.2221 69.9494V77.7212C59.2221 78.1875 58.7558 78.8093 58.134 78.8093ZM72.4342 108.187C72.4342 108.809 71.9679 109.275 71.3461 109.275H60.4656C59.8438 109.275 59.3775 108.809 59.3775 108.187V90.467C59.3775 89.8453 59.8438 89.379 60.4656 89.379H71.3461C71.9679 89.379 72.4342 89.8453 72.4342 90.467V108.187ZM88.4442 108.187C88.4442 108.809 87.9778 109.275 87.3561 109.275H76.4755C75.8538 109.275 75.3875 108.809 75.3875 108.187V90.467C75.3875 89.8453 75.8538 89.379 76.4755 89.379H87.3561C87.9778 89.379 88.4442 89.8453 88.4442 90.467V108.187ZM98.8584 77.5658C98.8584 78.1875 98.3921 78.6539 97.7704 78.6539H89.5322C88.9105 78.6539 88.4442 78.1875 88.4442 77.5658V69.794C88.4442 69.1722 88.9105 68.7059 89.5322 68.7059H97.7704C98.3921 68.7059 98.8584 69.1722 98.8584 69.794V77.5658ZM98.8584 57.0482C98.8584 57.6699 98.3921 58.1362 97.7704 58.1362H89.5322C88.9105 58.1362 88.4442 57.6699 88.4442 57.0482V49.2763C88.4442 48.6546 88.9105 48.1883 89.5322 48.1883H97.7704C98.3921 48.1883 98.8584 48.6546 98.8584 49.2763V57.0482ZM98.8584 36.5305C98.8584 37.1523 98.3921 37.6186 97.7704 37.6186H89.5322C88.9105 37.6186 88.4442 37.1523 88.4442 36.5305V28.7587C88.4442 28.1369 88.9105 27.6706 89.5322 27.6706H97.7704C98.3921 27.6706 98.8584 28.1369 98.8584 28.7587V36.5305Z" fill="#076300"/>
<path d="M0 42.2818V115.337C0 117.979 2.02068 120 4.6631 120H31.5536V37.6187H4.6631C2.02068 37.6187 0 39.7948 0 42.2818ZM10.5697 49.2764C10.5697 48.6547 11.036 48.1883 11.6577 48.1883H19.7405C20.3622 48.1883 20.8285 48.6547 20.8285 49.2764V57.0482C20.8285 57.67 20.3622 58.1363 19.7405 58.1363H11.6577C11.036 58.1363 10.5697 57.67 10.5697 57.0482V49.2764ZM10.5697 69.794C10.5697 69.1723 11.036 68.706 11.6577 68.706H19.7405C20.3622 68.706 20.8285 69.1723 20.8285 69.794V77.5659C20.8285 78.1876 20.3622 78.6539 19.7405 78.6539H11.6577C11.036 78.6539 10.5697 78.1876 10.5697 77.5659V69.794ZM10.5697 90.4671C10.5697 89.8454 11.036 89.3791 11.6577 89.3791H19.7405C20.3622 89.3791 20.8285 89.8454 20.8285 90.4671V98.2389C20.8285 98.8607 20.3622 99.327 19.7405 99.327H11.6577C11.036 99.327 10.5697 98.8607 10.5697 98.2389V90.4671Z" fill="#076300"/>
<path d="M143.002 37.6187H116.111V120H143.002C145.644 120 147.665 117.979 147.665 115.337V42.2818C147.665 39.7948 145.644 37.6187 143.002 37.6187ZM137.095 98.2389C137.095 98.8607 136.629 99.327 136.007 99.327H127.925C127.303 99.327 126.836 98.8607 126.836 98.2389V90.4671C126.836 89.8454 127.303 89.3791 127.925 89.3791H136.007C136.629 89.3791 137.095 89.8454 137.095 90.4671V98.2389ZM137.095 77.5659C137.095 78.1876 136.629 78.6539 136.007 78.6539H127.925C127.303 78.6539 126.836 78.1876 126.836 77.5659V69.794C126.836 69.1723 127.303 68.706 127.925 68.706H136.007C136.629 68.706 137.095 69.1723 137.095 69.794V77.5659ZM137.095 57.0482C137.095 57.67 136.629 58.1363 136.007 58.1363H127.925C127.303 58.1363 126.836 57.67 126.836 57.0482V49.2764C126.836 48.6547 127.303 48.1883 127.925 48.1883H136.007C136.629 48.1883 137.095 48.6547 137.095 49.2764V57.0482Z" fill="#076300"/>
</svg>
