<svg width="91" height="100" viewBox="0 0 91 100" fill="none" xmlns="http://www.w3.org/2000/svg">
<path fill-rule="evenodd" clip-rule="evenodd" d="M69.0196 100H3.56834C1.60337 100 0 98.3965 0 96.4317V21.7375H15.2814C18.8412 21.7375 21.7419 18.8369 21.7419 15.277V0H69.0199C70.9849 0 72.5883 1.60348 72.5883 3.56834V36.6745L51.0931 73.9018L50.1829 84.675C50.1702 84.8281 50.1659 84.9812 50.1659 85.1301C46.9718 84.9046 47.1206 81.9913 43.229 81.8509C38.5931 81.685 35.7861 88.1668 32.2343 88.1668C30.6223 88.1668 30.2055 86.2742 29.7887 84.373C29.087 81.1704 28.3852 77.9466 24.081 77.9466C17.2887 77.9466 18.4797 84.5943 9.44966 84.5943C8.5565 84.5943 7.82919 85.3216 7.82919 86.2147C7.82919 87.1079 8.55648 87.8352 9.44966 87.8352C19.6912 87.8352 19.4828 81.1875 24.081 81.1875C25.778 81.1875 26.2033 83.1269 26.6243 85.0579C27.3219 88.2393 28.0151 91.4078 32.2299 91.4078C37.3465 91.4078 40.4343 84.9813 43.1095 85.0791C45.4743 85.1642 45.7635 88.9239 51.4882 88.3668C53.1001 90.0254 55.6776 90.2976 57.5957 88.9579L66.472 82.7824L72.5795 72.2048V96.4264C72.588 98.3956 70.9846 100 69.0196 100ZM55.0655 73.5029L64.8435 79.1468L86.8874 40.9624L77.1094 35.3185L55.0655 73.5029ZM78.7252 32.5192L80.8178 28.8913C81.5238 27.6664 83.0975 27.2454 84.3224 27.9514L89.6558 31.0306C90.8807 31.7366 91.3018 33.3103 90.5958 34.5353L88.5032 38.1631L78.7252 32.5192ZM62.5674 81.5622L54.1079 76.6796L53.4104 84.9477C53.3041 86.2066 54.7161 87.0232 55.7538 86.3002L62.5674 81.5622ZM17.4582 1.04188L1.04558 17.4545C0.726592 17.7735 0.48417 18.1222 0.309787 18.5008H15.2808C17.0544 18.5008 18.5047 17.0547 18.5047 15.2769V0.305888C18.1219 0.480271 17.7729 0.727147 17.4582 1.04188ZM9.45376 62.2229H55.9065C56.7996 62.2229 57.527 61.4956 57.527 60.6024C57.527 59.7092 56.7997 58.9819 55.9065 58.9819L9.45376 58.9862C8.5606 58.9862 7.83329 59.7135 7.83329 60.6066C7.83754 61.4998 8.56058 62.2229 9.45376 62.2229ZM9.45376 72.3283H48.6845C49.5776 72.3283 50.3049 71.601 50.3049 70.7078C50.3049 69.8146 49.5776 69.0873 48.6845 69.0873H9.45376C8.5606 69.0873 7.83329 69.8146 7.83329 70.7078C7.83754 71.601 8.56058 72.3283 9.45376 72.3283ZM39.5962 7.71429L16.7988 24.2761C15.6037 25.1437 15.3357 26.8152 16.2034 28.0104C17.071 29.2055 18.7467 29.4735 19.9377 28.6058L41.1911 13.1665L62.4446 28.6058C63.6397 29.4734 65.3154 29.2055 66.1788 28.0104C67.0465 26.8152 66.7785 25.1438 65.5834 24.2761L42.761 7.6936C41.8083 7.00033 40.5148 7.01677 39.5962 7.71429ZM59.3602 30.3712L41.1902 17.1695L23.0203 30.3712V50.7395C23.0203 51.9431 24.0027 52.9256 25.2064 52.9256H32.3474L32.3516 37.3121C32.3516 34.7007 34.4824 32.5741 37.0897 32.5741H45.294C47.9054 32.5741 50.0321 34.7049 50.0321 37.3121V52.9256H57.1731C58.3768 52.9256 59.3592 51.9431 59.3592 50.7395L59.3635 30.3712H59.3602ZM46.7921 52.9258V37.3123C46.7921 36.4915 46.1116 35.811 45.2908 35.811H37.0864C36.2655 35.811 35.5851 36.4872 35.5851 37.3123V52.9258H46.7921Z" fill="#076300"/>
</svg>
