<svg width="176" height="79" viewBox="0 0 176 79" fill="none" xmlns="http://www.w3.org/2000/svg">
<path d="M44.2536 0.23828H132.198C141.924 -1.25174 148.097 4.61021 149.98 7.72124L174.311 56.3679C179.551 71.3336 169.006 77.572 163.079 78.8164H11.5058C0.273382 76.5732 -0.659903 65.4063 0.273407 60.1012L25.5383 10.5211C29.2879 0.795039 39.5706 -0.400316 44.2536 0.221891V0.23828Z" fill="#076300"/>
<path d="M12.4395 35.8021H164.012" stroke="white" stroke-width="1.71"/>
<path d="M55.4707 36.7355V78.8326" stroke="white" stroke-width="1.71"/>
<path d="M120.032 36.7355V78.8326" stroke="white" stroke-width="1.71"/>
<path d="M76.7246 56.1385H101.056" stroke="white" stroke-width="2.29" stroke-linecap="round"/>
<path d="M132.852 50.5226H151.567" stroke="white" stroke-width="2.29" stroke-linecap="round"/>
<path d="M24.3271 50.5226H44.9091" stroke="white" stroke-width="2.29" stroke-linecap="round"/>
<path d="M41.1592 20.5911H56.1248" stroke="white" stroke-width="2.29" stroke-linecap="round"/>
<path d="M114.138 20.5911H129.103" stroke="white" stroke-width="2.29" stroke-linecap="round"/>
<path d="M76.7246 20.5911H93.5733" stroke="white" stroke-width="2.29" stroke-linecap="round"/>
<path d="M132.852 65.4879H151.567" stroke="white" stroke-width="2.29" stroke-linecap="round"/>
<path d="M24.3271 65.4879H44.9091" stroke="white" stroke-width="2.29" stroke-linecap="round"/>
</svg>
