<svg width="120" height="97" viewBox="0 0 120 97" fill="none" xmlns="http://www.w3.org/2000/svg">
<path d="M108.653 58.2651C105.241 59.529 99.8059 60.9192 93.7393 62.3095C91.5907 65.8484 87.6727 68.7553 81.4796 69.8928C80.0894 70.1456 78.4463 70.272 76.6769 70.3984C72.3797 70.5247 67.3241 70.0192 61.763 69.64C61.3839 69.64 61.0047 69.64 60.6255 69.5136C59.2353 69.3872 58.0978 68.3761 57.9714 66.9859C57.845 65.2164 59.2353 63.8262 60.8783 63.9526C61.2575 63.9526 61.763 64.0789 62.1422 64.0789C69.3463 64.7109 76.1713 65.3428 80.4685 64.4581C88.431 62.9414 90.706 58.1387 90.2004 54.0943C89.8213 50.8082 87.2935 47.6484 83.3755 47.9012C77.8144 48.2804 71.2422 47.9012 64.7964 47.3957C57.4658 46.8901 50.0089 46.6373 44.7006 47.2693C38.7604 47.9012 26.7535 52.3248 16.1368 59.529C10.9549 63.0678 5.14105 67.2386 1.60217 69.8928C-0.167263 71.1567 -0.546428 73.6845 0.843844 75.4539L16.2632 95.4233C17.5271 97.1927 20.0549 97.4455 21.8243 96.1816L27.5118 91.758C28.9021 90.7469 30.6715 90.3677 32.1882 90.8733C42.552 94.1594 53.6742 96.308 60.8783 96.6871C76.6769 97.4455 107.136 78.74 115.857 72.6733C124.578 66.8595 118.259 54.7262 108.653 58.2651Z" fill="#076300"/>
<path d="M43.9422 27.9318C44.5741 28.5638 45.5852 28.5638 46.2172 27.9318L51.2727 22.8763L56.2019 27.8054C56.8338 28.4374 57.8449 28.4374 58.4768 27.8054L63.5324 22.8763L69.2199 28.5638C69.4726 28.8166 69.9782 29.0693 70.3574 29.0693H79.0782C82.4906 35.0096 88.8101 39.1804 96.1406 39.1804C107.01 39.1804 115.731 30.4596 115.731 19.5902C115.731 8.7208 107.01 0 96.1406 0C88.8101 0 82.4906 4.04443 79.0782 10.1111H45.7116C45.3325 10.1111 44.8269 10.2375 44.5741 10.6166L36.6117 18.4527C35.9797 19.0846 35.9797 20.0958 36.6117 20.7277L43.9422 27.9318ZM102.839 14.0291C105.872 14.0291 108.274 16.4305 108.274 19.4638C108.274 22.4971 105.872 24.8985 102.839 24.8985C99.8059 24.8985 97.4045 22.4971 97.4045 19.4638C97.4045 16.4305 99.8059 14.0291 102.839 14.0291Z" fill="#076300"/>
</svg>
